<svg width="84" height="83" viewBox="0 0 84 83" fill="none" xmlns="http://www.w3.org/2000/svg">
<g clip-path="url(#clip0_202_40)">
<path d="M40.0792 15.1466C41.1042 22.5149 37.6115 29.2087 32.2321 30.0932C26.9031 30.962 21.7357 25.71 20.7211 18.2979C19.6857 10.9296 23.1732 4.22706 28.5205 3.37492C33.8894 2.48166 39.0465 7.74063 40.0792 15.1466Z" fill="black"/>
<path d="M22.2942 32.5087C23.3166 39.8727 19.8152 46.5735 14.4532 47.4598C9.12244 48.3443 3.95239 43.0722 2.92654 35.6715C1.91199 28.2909 5.38128 21.598 10.7476 20.7248C16.1018 19.8482 21.2641 25.1124 22.2942 32.5087Z" fill="black"/>
<path d="M43.9246 15.1421C42.9057 22.5026 46.4106 29.2016 51.7613 30.0817C57.0886 30.9697 62.2691 25.7029 63.2723 18.3092C64.319 10.912 60.8176 4.23395 55.4834 3.35469C50.1083 2.49904 44.9513 7.75801 43.9246 15.1421Z" fill="black"/>
<path d="M61.7149 32.578C60.6934 39.9498 64.2061 46.655 69.5655 47.5281C74.8841 48.4074 80.0498 43.1572 81.0696 35.7486C82.1119 28.3645 78.594 21.6699 73.2606 20.8055C67.909 19.9244 62.7338 25.1843 61.7149 32.578Z" fill="black"/>
<path d="M62.137 46.7686C53.9059 42.6478 50.4749 34.4064 41.9754 34.4108C33.4403 34.402 30.0509 42.6312 21.7894 46.7528C8.85824 53.1912 5.5896 72.2209 18.7084 78.0521C29.5098 82.8631 32.1721 76.6575 41.9867 76.6461C51.757 76.6461 54.5235 82.9392 65.2971 78.1334C78.4359 72.2997 75.0839 53.1824 62.137 46.7686Z" fill="black"/>
<path d="M47.9703 46.3318C45.3272 46.3318 42.9931 47.6881 41.5965 49.7628C40.2002 47.6919 37.8646 46.3318 35.2227 46.3318C30.9454 46.3318 27.4737 49.8847 27.4737 54.2699C27.4737 62.0022 41.5965 70.0396 41.5965 70.0396C41.5965 70.0396 55.7193 62.0022 55.7193 54.2699C55.7193 49.8882 52.2511 46.3318 47.9703 46.3318Z" fill="#DE2A31"/>
</g>
<defs>
<clipPath id="clip0_202_40">
<rect width="84" height="83" fill="white"/>
</clipPath>
</defs>
</svg>
